<svg width="40" height="40" viewBox="0 0 40 40" fill="none" xmlns="http://www.w3.org/2000/svg">
<path d="M8.19125 15.18C8.25863 14.3039 8.29233 13.8659 8.57987 13.5996C8.86742 13.3333 9.30673 13.3333 10.1854 13.3333H29.8146C30.6932 13.3333 31.1325 13.3333 31.42 13.5996C31.7076 13.8659 31.7413 14.3039 31.8087 15.18L32.6707 26.3864C32.9809 30.4192 33.136 32.4356 31.9487 33.7178C30.7613 35 28.739 35 24.6943 35H15.3056C11.2609 35 9.23861 35 8.05125 33.7178C6.86389 32.4356 7.01899 30.4192 7.32921 26.3864L8.19125 15.18Z" fill="#2A4157" fill-opacity="0.24"/>
<path d="M14.1667 13.3333L14.1667 10.8333C14.1667 7.61168 16.7784 5.00001 20.0001 5.00001V5.00001C23.2217 5.00001 25.8334 7.61168 25.8334 10.8333L25.8334 13.3333" stroke="#222222"/>
<path d="M13.6667 19.1667C13.6667 19.4428 13.8906 19.6667 14.1667 19.6667C14.4429 19.6667 14.6667 19.4428 14.6667 19.1667H13.6667ZM14.6667 19.1667V16.6667H13.6667V19.1667H14.6667Z" fill="#222222"/>
<path d="M25.3333 19.1667C25.3333 19.4428 25.5571 19.6667 25.8333 19.6667C26.1094 19.6667 26.3333 19.4428 26.3333 19.1667H25.3333ZM26.3333 19.1667V16.6667H25.3333V19.1667H26.3333Z" fill="#222222"/>
</svg>
